<svg id="svg" version="1.1" viewBox="0 0 300 300" width="300" height="300" xmlns="http://www.w3.org/2000/svg"><svg xmlns="http://www.w3.org/2000/svg"><defs><clipPath id="clip-1"><rect x="0" y="0" transform="scale(0.15,0.15)" width="2000" height="2000" fill="none"/></clipPath><linearGradient x1="150.0825" y1="224.55" x2="149.9187" y2="132.38385" gradientUnits="userSpaceOnUse" id="color-1"><stop offset="0" stop-color="#0058e3"/><stop offset="1" stop-color="#20a6f1"/></linearGradient><linearGradient x1="165.0675" y1="155.229" x2="157.77" y2="96.9075" gradientUnits="userSpaceOnUse" id="color-2"><stop offset="0" stop-color="#118eef"/><stop offset="1" stop-color="#55c8f1"/></linearGradient><linearGradient x1="113.28165" y1="169.53" x2="134.3823" y2="99.8793" gradientUnits="userSpaceOnUse" id="color-3"><stop offset="0" stop-color="#0386ee"/><stop offset="1" stop-color="#52c2f0"/></linearGradient><linearGradient x1="150.2325" y1="102.00555" x2="150.99" y2="72.45225" gradientUnits="userSpaceOnUse" id="color-4"><stop offset="0" stop-color="#4dc2f1"/><stop offset="1" stop-color="#6de0f1"/></linearGradient><linearGradient x1="150.6885" y1="249.756" x2="149.44815" y2="96.82935" gradientUnits="userSpaceOnUse" id="color-5"><stop offset="0" stop-color="#004adf"/><stop offset="1" stop-color="#1ba9f2"/></linearGradient><linearGradient x1="151.7805" y1="97.02075" x2="152.7495" y2="50.13825" gradientUnits="userSpaceOnUse" id="color-6"><stop offset="0" stop-color="#3db2ef"/><stop offset="1" stop-color="#7af0f5"/></linearGradient></defs><g clip-path="url(#clip-1)" fill="none" fill-rule="nonzero" stroke="none" stroke-width="1" stroke-linecap="butt" stroke-linejoin="miter" stroke-miterlimit="10" stroke-dasharray="" stroke-dashoffset="0" font-family="none" font-weight="none" font-size="none" text-anchor="none" style="mix-blend-mode: normal"><path d="M111.88995,134.33295l0.072,-0.25485c-0.39825,-0.40455 -0.44115,-0.32085 -0.5508,-0.78765c0.5901,-0.52155 4.16265,-0.7872 5.12115,-0.6699c4.44855,0.54465 8.6052,2.60715 13.1202,3.0477c0.7437,0.0726 1.9434,1.24965 2.83725,0.8556c1.6095,-0.3978 3.0546,1.36335 4.7031,0.59925l-0.05955,0.40455l0.1689,0.04575c2.8731,0.804 8.54385,5.4981 10.7589,5.86545c4.1709,2.18175 8.5659,4.9923 12.6144,7.45665l14.7825,8.8605c3.2115,1.9305 6.465,3.7305 9.6855,5.6925c2.133,1.3005 6.4545,3.1125 7.317,5.64c0.27,0.8235 0.231,3.501 -0.3705,4.1505c-2.7495,2.976 -7.9845,5.4285 -11.4165,7.4115l-14.382,8.355c-4.488,2.589 -10.8495,6.789 -15.6315,8.7225c-2.1888,0.885 -9.0384,-3.8475 -11.47305,-5.2365c-8.16855,-4.6515 -16.27185,-9.4155 -24.3075,-14.292c-1.42965,0.54 -8.73795,4.6815 -9.9897,5.6445c2.87865,2.046 6.27495,3.768 9.2805,5.6055c7.38135,4.5135 14.97405,8.6535 22.42815,13.05c4.41585,2.6055 9.04215,5.8395 13.7001,7.9605c5.7945,-3.3345 11.499,-6.933 17.2665,-10.3095c11.97,-6.906 23.895,-13.893 35.7705,-20.958c0.273,-4.9785 0.0225,-10.413 0.0105,-15.4185c-0.0015,-0.4395 -0.264,-0.843 -0.627,-1.092c-2.6265,-1.8075 -5.4345,-3.342 -8.1555,-5.0325c-7.8615,-4.8375 -15.774,-9.5925 -23.7345,-14.26425l-7.776,-4.6761c-1.197,-0.72615 -3.5025,-2.0676 -4.566,-2.88225l-0.228,-0.1767l0.3105,-0.0876l-0.1575,-0.10815c1.5615,-0.0213 3.8865,2.0343 5.622,1.7397c1.3065,-0.2217 1.8135,-1.17765 2.5215,-2.16555c1.119,-0.05205 1.494,-0.15285 2.6055,-0.447c2.22,-2.3745 5.859,0.66765 6.666,-1.61805c6.4245,3.9354 12.876,7.82595 19.3545,11.6715c2.4135,1.404 19.0845,10.76895 19.2525,12.58245c0.7245,7.8015 0.276,17.007 0.3105,24.987c0.003,0.6945 -0.351,2.592 -0.6855,3.318c-2.127,2.121 -5.1285,3.3315 -7.653,4.9275c-5.055,3.189 -10.2045,5.9235 -15.2445,8.9655l-24.264,14.373c-5.1315,3.027 -11.0415,7.161 -16.593,9.1635c-1.341,0.4845 -9.2652,-4.74 -11.06655,-5.805l-17.4996,-10.3065l-25.7979,-15.105c-2.96685,-1.7625 -7.06485,-3.8505 -9.68805,-6.0285c-1.4565,-1.2105 -1.0764,-5.916 -1.07655,-7.968l0.00735,-9.5955l0.012,-11.217c0.00435,-2.13 -0.0579,-5.019 0.135,-7.089c2.55465,2.3565 7.968,4.0995 10.53825,6.5535c0.9951,0.9495 0.58755,8.7255 0.573,10.434c-0.02595,3.0075 0.18735,6.2475 0.0909,9.2055c4.1361,-2.034 8.29215,-4.842 12.35595,-7.0635c1.49295,-0.8175 4.1304,-2.3595 5.7024,-2.829c2.70975,0.4605 4.4949,2.3295 6.7791,3.621c7.07655,4.0005 14.049,8.184 21.09615,12.231c2.54565,1.4625 4.1811,2.7015 6.918,4.035c3.16155,-2.043 5.95755,-3.5835 9.19005,-5.4705l10.356,-6.099c2.1435,-1.2435 4.3575,-2.274 6.4245,-3.6315c-1.254,-1.248 -4.284,-2.7975 -5.973,-3.7995l-6.468,-3.918l-38.1495,-23.07765c-2.48745,-1.5297 -5.24895,-3.0066 -7.7664,-4.53465c-1.7253,-1.0473 -3.4833,-1.89915 -5.10765,-3.16125z" fill="url(#color-1)"/><path d="M186.465,92.5938c2.1885,1.4508 4.2045,2.35785 6.315,3.6567c3.987,2.4534 7.8975,4.4772 11.8875,6.88545c2.8395,1.71405 6.5385,3.29355 9.0105,5.60325c0.4725,0.44025 0.732,1.22805 0.8175,1.84455c0.483,3.519 0.2985,7.84875 0.294,11.4303v19.3644c0.0015,2.61015 -0.132,5.86575 -0.0375,8.3742c-1.602,-0.72675 -11.0865,-5.92515 -11.1555,-7.06065c-0.4005,-6.53205 -0.129,-14.36685 -0.2175,-20.934c-5.5125,2.8779 -10.917,6.8439 -16.413,9.7899c-2.4795,1.32885 -4.572,-0.5148 -6.543,-1.8477c-1.176,-0.79575 -4.806,-2.54505 -5.403,-3.6105c0.27,-0.8388 1.488,-1.4139 2.259,-1.87455l-20.3145,-12.1863c-1.821,-1.0788 -4.6125,-3.1347 -6.375,-3.98055c-1.26255,0.5346 -1.5783,0.9201 -2.6952,1.5372c-2.85555,1.57755 -5.48655,3.3918 -8.24415,5.1258c-4.17195,2.6235 -8.65365,5.00835 -12.7662,7.7397c-1.4916,0.9906 -5.7564,2.8107 -6.5367,3.8136c0.0702,0.8217 4.7931,3.27465 5.6376,3.7902l15.33975,9.26505c1.1907,0.71805 5.84025,3.4062 6.7365,4.119c-2.21505,-0.36735 -7.8858,-5.06145 -10.7589,-5.86545l-0.1689,-0.04575l0.05955,-0.40455c-1.6485,0.7641 -3.0936,-0.99705 -4.7031,-0.59925c-0.89385,0.39405 -2.09355,-0.783 -2.83725,-0.8556c-4.515,-0.44055 -8.67165,-2.50305 -13.1202,-3.0477c-0.9585,-0.1173 -4.53105,0.14835 -5.12115,0.6699c0.10965,0.4668 0.15255,0.3831 0.5508,0.78765l-0.072,0.25485c-1.0602,-0.61155 -4.1721,-2.2461 -4.6317,-3.31245c-0.8022,-1.86165 -0.67365,-6.95175 -0.1449,-8.8104c0.5073,-1.78335 4.707,-3.73335 6.32115,-4.69395l10.341,-6.2025l10.51335,-6.3465c1.61355,-0.98175 3.39825,-2.2251 5.0517,-3.07215c1.73835,-1.0641 3.49635,-2.1771 5.23125,-3.21675c1.73595,-1.04025 4.4895,-3.05295 6.5757,-2.3583c2.9235,0.97365 5.6055,2.9898 8.2845,4.50435c2.3595,1.28775 4.362,2.4114 6.63,3.79275c0.7365,0.32025 1.3695,0.7641 2.058,1.17195c6.324,3.73995 12.723,7.34865 19.0425,11.09895c1.1445,0.8091 2.412,0.4572 3.5145,-0.3888c1.7385,-1.3326 5.4795,-2.9034 6.903,-4.4289c-0.4665,-0.7674 -17.4345,-10.527 -19.7925,-11.95305c0.6285,-1.1007 0.843,0.0171 1.713,-0.32835l-0.0765,-0.56565c0.342,-0.34785 1.2555,-0.54405 1.791,-0.71175c1.0155,-1.0179 1.317,-2.24865 1.8555,-3.57645c0.954,-2.35125 3.0975,-0.7386 4.4895,-1.29555c-0.669,-0.2706 -0.7755,-0.43935 -1.095,-1.04565z" fill="url(#color-2)"/><path d="M139.34055,101.895c1.73835,-1.0641 3.49635,-2.1771 5.23125,-3.21675c1.73595,-1.04025 4.4895,-3.05295 6.5757,-2.3583c2.9235,0.97365 5.6055,2.9898 8.2845,4.50435c2.3595,1.28775 4.362,2.4114 6.63,3.79275c-1.1295,0.71295 -3.084,-1.2291 -4.6605,-1.16115c-0.996,0.0429 -2.553,0.1443 -3.4965,0.0675c-1.8465,1.37925 -6.9,0.46785 -9.2214,0.29055c-0.92295,-0.0705 -2.7138,-0.654 -3.7524,-0.84465c-1.55955,-0.2862 -2.43765,0.1776 -3.2265,-1.29765l-0.2826,0.0168c-0.58095,0.4023 -0.6558,0.4947 -1.32225,0.65655c-0.4602,-0.117 -0.42735,-0.10665 -0.7593,-0.45z" fill="#3db1ef"/><path d="M96.6084,136.48935c1.2552,1.09035 2.99805,1.9749 4.4136,2.86425c3.1449,1.97565 6.4404,3.74715 9.61215,5.658l32.13195,19.6359c2.89155,1.7835 5.8785,3.468 8.7849,5.226c1.0635,0.6435 5.877,3.2595 6.0105,4.1595c-0.7065,1.392 -7.218,4.707 -8.84295,5.9445c-1.4595,1.113 -5.95005,-2.0775 -7.41645,-2.9265c-1.4877,-0.861 -3.26115,-1.9665 -4.8147,-2.8965l-21.45435,-12.9855l-15.1422,-9.0765c-4.2201,-2.4828 -8.47395,-4.97445 -12.63855,-7.5507c-0.5469,-0.3384 -0.9798,-0.7266 -1.35105,-1.254c-0.43335,-0.6159 -0.6129,-1.83615 -0.6474,-2.60655c-0.0876,-1.9533 -0.0588,-3.99375 -0.0576,-5.955l0.00795,-10.59975c0.0012,-4.06335 -0.20685,-8.71455 0.1818,-12.7293c0.1128,-0.83805 0.6219,-1.8207 1.3242,-2.31675c8.3454,-5.8944 18.2784,-10.5519 26.7534,-16.1451l0.0429,0.5697l0.67995,0.29595c0.0663,0.32985 0.04695,0.20805 -0.04425,0.56745c0.4806,0.852 2.09985,1.18215 2.72985,2.3313c0.447,0.8154 0.73095,3.80445 1.4694,3.90765c1.8444,0.25755 1.4556,-0.0414 2.9922,1.00425c-8.0631,4.65435 -16.7496,9.6333 -24.618,14.4936c-0.4299,2.69865 -0.30795,6.8145 -0.2847,9.63285c0.0285,3.4302 -0.0426,7.3542 0.17745,10.75125z" fill="url(#color-3)"/><path d="M113.4636,92.93535c3.20535,-1.53195 6.39495,-3.8694 9.50925,-5.6463c2.0904,-1.4001 4.54065,-2.3952 6.64695,-3.72555c5.8017,-3.6642 11.7993,-6.91965 17.70435,-10.40055c0.4548,-0.2682 2.6217,-1.1388 3.04035,-1.04235c2.448,0.5628 4.797,2.4024 6.9645,3.66l18.8235,10.91415l7.2225,4.14975c0.846,0.4791 2.4855,1.20075 3.09,1.7493c0.3195,0.6063 0.426,0.77505 1.095,1.04565c-1.392,0.55695 -3.5355,-1.0557 -4.4895,1.29555c-0.5385,1.3278 -0.84,2.55855 -1.8555,3.57645c-0.5355,0.1677 -1.449,0.3639 -1.791,0.71175l0.0765,0.56565c-0.87,0.34545 -1.0845,-0.77235 -1.713,0.32835c-2.4,-1.21575 -4.992,-2.83185 -7.3395,-4.2117l-10.1955,-5.946c-3.3255,-1.9605 -6.2385,-3.7563 -9.684,-5.5152c-2.92515,1.1061 -4.9809,2.8227 -7.58205,4.3908c-5.09775,3.0732 -10.2849,6.0618 -15.43965,9.04275c-1.4082,0.81435 -4.88565,3.1338 -6.21315,3.7338c-1.5366,-1.04565 -1.1478,-0.7467 -2.9922,-1.00425c-0.73845,-0.1032 -1.0224,-3.09225 -1.4694,-3.90765c-0.63,-1.14915 -2.24925,-1.4793 -2.72985,-2.3313c0.0912,-0.3594 0.11055,-0.2376 0.04425,-0.56745l-0.67995,-0.29595z" fill="url(#color-4)"/><path d="M137.7054,125.16525c1.73625,-1.95855 7.68,-4.93665 10.23555,-6.11505c0.9654,-0.4452 4.07505,1.77675 5.08755,2.3757l6.945,4.13325c5.1675,3.0798 10.7805,6.2205 15.8535,9.4044c-0.807,2.2857 -4.446,-0.75645 -6.666,1.61805c-1.1115,0.29415 -1.4865,0.39495 -2.6055,0.447c-0.708,0.9879 -1.215,1.94385 -2.5215,2.16555c-1.7355,0.2946 -4.0605,-1.761 -5.622,-1.7397l0.1575,0.10815l-0.3105,0.0876c-0.8445,-0.213 -19.65615,-11.68725 -20.5536,-12.48495z" fill="#3db1ef"/><path d="M220.9635,89.94795c3.2415,1.80165 12.2145,6.2826 13.7745,9.0216c1.485,1.2057 1.0665,11.7849 1.065,13.96695l0.006,22.30635l0.0045,40.93215l0.018,13.1175c0.0045,2.463 0.0345,5.0085 -0.0345,7.461c-0.033,1.203 -0.2355,3.1155 -0.9555,4.053c-0.7515,0.978 -1.8105,2.2215 -2.8875,2.8545c-4.305,2.5305 -8.682,5.0745 -13.005,7.566l-21.3975,12.4875l-28.8045,16.8345c-4.7655,2.7945 -9.4785,5.664 -14.2665,8.4255c-5.55375,3.2055 -10.15125,-0.7905 -14.9262,-3.5595c-4.3356,-2.502 -8.65365,-5.034 -12.95415,-7.596l-29.4924,-17.265l-19.42575,-11.331c-3.26775,-1.8975 -6.97155,-3.897 -10.0443,-6.012c-1.94415,-1.338 -3.198,-2.9625 -3.3765,-5.3565c-0.3228,-4.3305 -0.21015,-9.0825 -0.2103,-13.4475l0.0129,-25.884l0.0153,-38.51385l0.05715,-10.95495c0.01095,-3.1356 -0.4695,-8.4339 1.45545,-10.9509c0.55485,-0.0594 0.8781,-0.23865 1.38555,-0.471c0.26655,0.67635 -0.22965,0.76035 0.03795,1.34595l0.6423,0.0711c0.15,0.3627 0.1083,0.24825 0.1473,0.6519c0.39045,0.2619 0.42345,0.2079 0.9147,0.28395c1.7925,1.7112 1.76535,2.0943 2.70045,4.3377c0.54105,1.2981 2.2422,2.95635 2.5911,4.3968c0.2529,-0.1638 0.1782,-0.07125 0.27705,-0.22485c0.24885,9.59295 0.0498,20.1459 0.02595,29.8149l0.08385,56.01525c4.59555,2.52 8.54775,5.0475 12.97305,7.611l44.35815,25.857l12.2073,7.0905c2.013,1.1805 4.03545,2.7315 6.1941,3.549c1.131,-0.4605 2.2245,-1.245 3.3045,-1.8405c2.616,-1.4415 5.1135,-3.057 7.6755,-4.575l22.98,-13.5105c7.7595,-4.6245 15.7515,-8.958 23.457,-13.695c0.681,-0.417 1.3995,-0.819 2.0955,-1.2135l10.3785,-6.0075c1.377,-0.8085 4.038,-2.2905 5.1345,-3.2025c0.762,-0.6315 0.471,-6.807 0.4665,-8.169l0.003,-12.339l0.018,-45.40725l-0.0165,-13.46535c-0.0105,-2.56575 -0.108,-5.9694 0.0585,-8.48475l0.0135,-0.1788c-0.0855,-0.81165 -0.1275,-1.6209 -0.1755,-2.4354c-3.066,-1.94865 -6.354,-3.7593 -9.456,-5.65545c-1.0995,-0.6717 -3.288,-1.7253 -4.143,-2.44035l0.087,-0.2424c0.9795,-0.40155 2.7645,1.5699 4.134,0.9315c0.4305,-0.7968 0.5055,-1.3527 0.7125,-2.21955c0.18,-0.7566 -0.138,-0.8877 -0.6495,-1.57185c-0.0045,-0.78105 0.42,-0.2967 0.534,-0.9777c0.0285,-0.16875 -0.45,-0.30615 -0.3495,-0.9078c1.341,0.01155 1.0245,0.162 1.833,-0.87375c0.9825,0.00915 1.497,1.41855 2.7375,-0.00315z" fill="url(#color-5)"/><path d="M220.9635,89.94795c3.2415,1.80165 12.2145,6.2826 13.7745,9.0216c-0.4275,0.61755 -0.6375,0.49275 -1.3455,0.3336c-1.569,1.80435 -1.8735,3.6321 -2.8155,4.45905c-1.1355,0.99585 -2.3415,3.82575 -3.114,3.94095c-1.0305,-0.59895 -1.0965,-1.9293 -1.572,-3.04125c0.015,0.4725 0.1635,3.09915 0.0165,3.38265c-0.429,-0.81225 0.084,-0.78195 -0.2085,-1.7007c-0.0855,-0.81165 -0.1275,-1.6209 -0.1755,-2.4354c-3.066,-1.94865 -6.354,-3.7593 -9.456,-5.65545c-1.0995,-0.6717 -3.288,-1.7253 -4.143,-2.44035l0.087,-0.2424c0.9795,-0.40155 2.7645,1.5699 4.134,0.9315c0.4305,-0.7968 0.5055,-1.3527 0.7125,-2.21955c0.18,-0.7566 -0.138,-0.8877 -0.6495,-1.57185c-0.0045,-0.78105 0.42,-0.2967 0.534,-0.9777c0.0285,-0.16875 -0.45,-0.30615 -0.3495,-0.9078c1.341,0.01155 1.0245,0.162 1.833,-0.87375c0.9825,0.00915 1.497,1.41855 2.7375,-0.00315z" fill="#3db1ef"/><path d="M83.2527,87.0138c3.2022,-1.70145 6.37335,-3.4608 9.51195,-5.277c9.8607,-5.75355 19.73235,-11.43405 29.56005,-17.2785c8.16465,-4.82385 16.33365,-9.88545 24.80295,-14.1384c1.2063,-0.60585 4.00035,-0.65895 5.25585,-0.1215c6.0675,2.59755 12.516,7.0758 18.129,10.4577c12.183,7.2009 24.444,14.2719 36.78,21.2115c3.7065,2.11935 7.326,4.62015 11.1555,6.5865c0.8085,0.41445 1.803,1.1634 2.5155,1.49385c-1.2405,1.4217 -1.755,0.0123 -2.7375,0.00315c-0.8085,1.03575 -0.492,0.8853 -1.833,0.87375c-0.1005,0.60165 0.378,0.73905 0.3495,0.9078c-0.114,0.681 -0.5385,0.19665 -0.534,0.9777c0.5115,0.68415 0.8295,0.81525 0.6495,1.57185c-0.207,0.86685 -0.282,1.42275 -0.7125,2.21955c-1.3695,0.6384 -3.1545,-1.33305 -4.134,-0.9315l-0.087,0.2424c-4.608,-2.54145 -8.418,-4.91235 -12.954,-7.5357l-33.1725,-19.2813c-3.1785,-1.8402 -6.375,-3.7137 -9.576,-5.5173c-1.6755,-0.9447 -4.077,-2.76075 -5.6475,-3.50505c-4.36905,1.35735 -8.71845,4.593 -12.58725,6.94815c-1.31415,0.79995 -2.9349,1.48395 -4.3218,2.32785c-5.7468,3.4968 -11.5587,6.85695 -17.31555,10.3353c-2.92515,1.76745 -6.04365,3.3201 -9,5.08785l-13.57335,8.0175c-1.88415,1.1133 -4.35225,2.7351 -6.1803,3.70515l-0.14895,-0.27195l0.3864,-0.3483c-0.00885,-0.549 -0.5958,-0.66855 -1.0614,-0.68145c-1.67325,-0.12705 -0.8898,-3.31365 -1.2633,-4.1952c-0.61815,-1.45965 -1.74345,-1.1409 -1.2147,-2.87145l-0.1899,-0.3414c-0.2469,-0.0858 -0.4923,-0.1524 -0.7479,-0.2073z" fill="url(#color-6)"/><path d="M65.5917,98.1033c2.5431,-2.6763 6.16695,-4.3056 9.3783,-6.0873c2.8974,-1.6077 5.4951,-3.30615 8.2827,-5.0022l0.1038,0.46425c0.2556,0.0549 0.501,0.1215 0.7479,0.2073l0.1899,0.3414c-0.52875,1.73055 0.59655,1.4118 1.2147,2.87145c0.3735,0.88155 -0.40995,4.06815 1.2633,4.1952c0.4656,0.0129 1.05255,0.13245 1.0614,0.68145l-0.3864,0.3483l0.14895,0.27195c-1.09245,0.8877 -3.45615,1.8417 -4.7058,2.66385c-2.63955,1.7364 -5.75055,3.264 -8.37,4.96005c-0.23445,1.61955 -0.2784,2.83065 -0.23235,4.47585c-0.09885,0.1536 -0.02415,0.06105 -0.27705,0.22485c-0.3489,-1.44045 -2.05005,-3.0987 -2.5911,-4.3968c-0.9351,-2.2434 -0.90795,-2.6265 -2.70045,-4.3377c-0.49125,-0.07605 -0.52425,-0.02205 -0.9147,-0.28395c-0.039,-0.40365 0.0027,-0.2892 -0.1473,-0.6519l-0.6423,-0.0711c-0.2676,-0.5856 0.2286,-0.6696 -0.03795,-1.34595c-0.50745,0.23235 -0.8307,0.4116 -1.38555,0.471z" fill="#3db1ef"/></g></svg></svg>